<svg width="216" height="56" viewBox="0 0 216 56" fill="none" xmlns="http://www.w3.org/2000/svg">
<path d="M74.667 4.66669H75.6003V51.3334H74.667V4.66669Z" fill="#23282F"/>
<path d="M98.8661 14.4939H100.494L105.048 25.0667H102.898L101.912 22.6475H97.3279L96.3722 25.0667H94.2666L98.8661 14.4939ZM101.255 21.0347L99.6277 16.7338L97.9701 21.0347H101.255ZM109.807 14.4939H111.689V23.3643H116.184V25.0667H109.807V14.4939ZM121.135 14.4939H128.139V16.1962H123.017V18.7947H127.87V20.4971H123.017V23.3643H128.408V25.0667H121.135V14.4939ZM136.432 19.5413L132.908 14.4939H135.282L137.776 18.4064L140.24 14.4939H142.525L139.06 19.5413L142.898 25.0667H140.509L137.716 20.6016L134.938 25.0667H132.669L136.432 19.5413ZM151.075 14.4939H152.703L157.257 25.0667H155.107L154.121 22.6475H149.537L148.581 25.0667H146.476L151.075 14.4939ZM153.464 21.0347L151.837 16.7338L150.179 21.0347H153.464ZM162.016 14.4939H164.51L169.632 22.3488H169.662V14.4939H171.544V25.0667H169.154L163.928 16.9578H163.898V25.0667H162.016V14.4939ZM177.486 14.4939H181.652C182.349 14.4939 183.021 14.6034 183.668 14.8224C184.315 15.0314 184.888 15.355 185.385 15.793C185.883 16.2311 186.281 16.7836 186.58 17.4506C186.879 18.1077 187.028 18.8842 187.028 19.7803C187.028 20.6862 186.854 21.4727 186.505 22.1397C186.167 22.7968 185.724 23.3443 185.176 23.7824C184.639 24.2105 184.037 24.534 183.369 24.7531C182.712 24.9621 182.065 25.0667 181.428 25.0667H177.486V14.4939ZM180.771 23.3643C181.358 23.3643 181.911 23.2995 182.429 23.1701C182.956 23.0307 183.414 22.8217 183.803 22.5429C184.191 22.2542 184.494 21.8859 184.713 21.4379C184.942 20.9799 185.057 20.4274 185.057 19.7803C185.057 19.1431 184.957 18.5955 184.758 18.1376C184.559 17.6796 184.28 17.3113 183.922 17.0325C183.574 16.7438 183.155 16.5347 182.668 16.4053C182.19 16.2659 181.662 16.1962 181.085 16.1962H179.367V23.3643H180.771ZM192.401 14.4939H196.075C196.582 14.4939 197.07 14.5436 197.538 14.6432C198.016 14.7328 198.439 14.8921 198.807 15.1211C199.176 15.35 199.469 15.6587 199.688 16.0469C199.907 16.4352 200.017 16.928 200.017 17.5253C200.017 18.2919 199.803 18.934 199.375 19.4517C198.957 19.9694 198.354 20.283 197.568 20.3925L200.375 25.0667H198.106L195.656 20.5867H194.283V25.0667H192.401V14.4939ZM195.746 18.9739C196.015 18.9739 196.284 18.9639 196.552 18.944C196.821 18.9141 197.065 18.8544 197.284 18.7648C197.513 18.6652 197.697 18.5209 197.837 18.3317C197.976 18.1326 198.046 17.8588 198.046 17.5104C198.046 17.2018 197.981 16.9529 197.852 16.7637C197.722 16.5746 197.553 16.4352 197.344 16.3456C197.135 16.246 196.901 16.1813 196.642 16.1515C196.393 16.1216 196.149 16.1066 195.91 16.1066H194.283V18.9739H195.746ZM213.858 21.184C213.858 21.8211 213.749 22.3986 213.53 22.9163C213.311 23.424 213.012 23.8571 212.634 24.2155C212.256 24.5739 211.808 24.8526 211.29 25.0517C210.772 25.2409 210.21 25.3355 209.602 25.3355C208.995 25.3355 208.433 25.2409 207.915 25.0517C207.397 24.8526 206.944 24.5739 206.556 24.2155C206.178 23.8571 205.879 23.424 205.66 22.9163C205.451 22.3986 205.346 21.8211 205.346 21.184V14.4939H207.228V21.1243C207.228 21.3831 207.268 21.6569 207.348 21.9456C207.427 22.2243 207.557 22.4832 207.736 22.7221C207.925 22.9611 208.169 23.1602 208.468 23.3195C208.776 23.4688 209.154 23.5435 209.602 23.5435C210.05 23.5435 210.424 23.4688 210.722 23.3195C211.031 23.1602 211.275 22.9611 211.454 22.7221C211.643 22.4832 211.778 22.2243 211.857 21.9456C211.937 21.6569 211.977 21.3831 211.977 21.1243V14.4939H213.858V21.184ZM95.6255 29.4939H99.2991C99.7571 29.4939 100.18 29.5486 100.568 29.6581C100.967 29.7676 101.305 29.9319 101.584 30.1509C101.873 30.36 102.097 30.6338 102.256 30.9722C102.425 31.3008 102.51 31.689 102.51 32.1371C102.51 32.7443 102.341 33.2421 102.002 33.6304C101.664 34.0087 101.226 34.2875 100.688 34.4666V34.4965C101.007 34.5164 101.305 34.6011 101.584 34.7504C101.863 34.8898 102.102 35.0789 102.301 35.3179C102.51 35.5468 102.674 35.8156 102.794 36.1243C102.913 36.4329 102.973 36.7664 102.973 37.1248C102.973 37.6027 102.873 38.0258 102.674 38.3941C102.485 38.7525 102.221 39.0562 101.883 39.3051C101.544 39.5539 101.151 39.7431 100.703 39.8725C100.255 40.0019 99.772 40.0667 99.2543 40.0667H95.6255V29.4939ZM97.0591 33.8842H99.0154C99.2842 33.8842 99.5381 33.8594 99.777 33.8096C100.016 33.7499 100.225 33.6553 100.404 33.5259C100.583 33.3964 100.723 33.2322 100.822 33.0331C100.932 32.8339 100.987 32.59 100.987 32.3013C100.987 31.8832 100.852 31.5198 100.583 31.2112C100.315 30.9026 99.8915 30.7483 99.3141 30.7483H97.0591V33.8842ZM97.0591 38.8123H99.1647C99.3838 38.8123 99.6227 38.7923 99.8815 38.7525C100.15 38.7027 100.399 38.6131 100.628 38.4837C100.857 38.3443 101.051 38.1602 101.211 37.9312C101.37 37.7022 101.45 37.3986 101.45 37.0203C101.45 36.3931 101.245 35.9251 100.837 35.6165C100.429 35.2979 99.8766 35.1387 99.1797 35.1387H97.0591V38.8123ZM109.855 29.4939V35.9749C109.855 36.3035 109.9 36.6469 109.99 37.0053C110.079 37.3538 110.229 37.6773 110.438 37.976C110.647 38.2747 110.92 38.5186 111.259 38.7077C111.597 38.8969 112.016 38.9915 112.513 38.9915C113.011 38.9915 113.429 38.8969 113.768 38.7077C114.106 38.5186 114.38 38.2747 114.589 37.976C114.798 37.6773 114.948 37.3538 115.037 37.0053C115.127 36.6469 115.172 36.3035 115.172 35.9749V29.4939H116.605V36.1989C116.605 36.8162 116.501 37.3787 116.292 37.8864C116.082 38.3842 115.794 38.8172 115.425 39.1856C115.057 39.5539 114.624 39.8377 114.126 40.0368C113.628 40.2359 113.091 40.3355 112.513 40.3355C111.936 40.3355 111.398 40.2359 110.901 40.0368C110.403 39.8377 109.97 39.5539 109.601 39.1856C109.233 38.8172 108.944 38.3842 108.735 37.8864C108.526 37.3787 108.422 36.8162 108.422 36.1989V29.4939H109.855ZM122.714 29.4939H124.596L130.42 38.1851H130.45V29.4939H131.883V40.0667H130.062L124.178 31.3755H124.148V40.0667H122.714V29.4939ZM145.546 31.7787C145.247 31.3904 144.869 31.0917 144.411 30.8827C143.953 30.6736 143.48 30.569 142.992 30.569C142.395 30.569 141.852 30.6835 141.365 30.9125C140.887 31.1315 140.474 31.4352 140.125 31.8234C139.787 32.2117 139.523 32.6697 139.334 33.1973C139.144 33.715 139.05 34.2725 139.05 34.8699C139.05 35.4274 139.14 35.955 139.319 36.4528C139.498 36.9506 139.757 37.3886 140.095 37.7669C140.434 38.1452 140.847 38.4439 141.335 38.6629C141.823 38.8819 142.375 38.9915 142.992 38.9915C143.6 38.9915 144.132 38.867 144.59 38.6181C145.048 38.3692 145.436 38.0208 145.755 37.5728L146.965 38.4837C146.885 38.5932 146.746 38.7525 146.546 38.9616C146.347 39.1607 146.084 39.3648 145.755 39.5739C145.426 39.773 145.028 39.9472 144.56 40.0965C144.102 40.2558 143.57 40.3355 142.962 40.3355C142.126 40.3355 141.37 40.1762 140.693 39.8576C140.026 39.539 139.453 39.1209 138.975 38.6032C138.507 38.0855 138.149 37.5031 137.9 36.856C137.651 36.1989 137.527 35.5369 137.527 34.8699C137.527 34.0535 137.661 33.3019 137.93 32.6149C138.199 31.918 138.572 31.3207 139.05 30.8229C139.538 30.3152 140.12 29.9219 140.797 29.6432C141.474 29.3644 142.221 29.2251 143.037 29.2251C143.734 29.2251 144.416 29.3594 145.083 29.6282C145.76 29.897 146.312 30.3102 146.741 30.8677L145.546 31.7787ZM152.282 29.4939H159.107V30.8378H153.716V33.9888H158.734V35.3328H153.716V38.7227H159.376V40.0667H152.282V29.4939ZM168.311 29.4939H169.61L174.135 40.0667H172.462L171.402 37.4533H166.369L165.324 40.0667H163.652L168.311 29.4939ZM170.879 36.1989L168.908 31.3456H168.878L166.877 36.1989H170.879Z" fill="#23282F"/>
<path d="M42 52.2487C36.2263 55.5822 29.4527 56.7461 22.8974 55.5311C16.3422 54.3162 10.4355 50.8021 6.23991 45.621C2.0443 40.4398 -0.164924 33.9316 0.00959497 27.267C0.184114 20.6024 2.73093 14.2188 7.19195 9.26434C11.653 4.30988 17.7354 1.10975 24.3453 0.239543C30.9551 -0.630659 37.6586 0.886178 43.2499 4.51723C48.8412 8.14827 52.9535 13.6552 54.847 20.0476C56.7405 26.4399 56.2909 33.2981 53.5793 39.3886L51.0213 38.2498C53.4618 32.7683 53.8664 26.5959 52.1623 20.8428C50.4581 15.0897 46.7571 10.1334 41.7249 6.8655C36.6927 3.59756 30.6596 2.23241 24.7107 3.01559C18.7619 3.79877 13.2877 6.67889 9.27275 11.1379C5.25784 15.5969 2.9657 21.3422 2.80864 27.3403C2.65157 33.3385 4.63987 39.1958 8.41592 43.8589C12.192 48.5219 17.5079 51.6846 23.4077 52.778C29.3074 53.8715 35.4037 52.8239 40.6 49.8238L42 52.2487Z" fill="url(#paint0_linear)"/>
<rect x="9.33301" width="9.33333" height="28" fill="#2BC99A"/>
<rect x="37.333" y="28" width="9.33333" height="18.6667" fill="#2BC99A"/>
<path d="M46.6663 28C46.6663 38.3093 38.309 46.6666 27.9997 46.6666C17.6904 46.6666 9.33301 38.3093 9.33301 28C9.33301 17.6907 17.6904 9.33331 27.9997 9.33331C38.309 9.33331 46.6663 17.6907 46.6663 28ZM18.6663 28C18.6663 33.1546 22.845 37.3333 27.9997 37.3333C33.1543 37.3333 37.333 33.1546 37.333 28C37.333 22.8453 33.1543 18.6666 27.9997 18.6666C22.845 18.6666 18.6663 22.8453 18.6663 28Z" fill="#46D7AC"/>
<defs>
<linearGradient id="paint0_linear" x1="8.75" y1="12.25" x2="49" y2="42" gradientUnits="userSpaceOnUse">
<stop stop-color="#4B3EE0"/>
<stop offset="1" stop-color="#46D7AC"/>
</linearGradient>
</defs>
</svg>
