<svg width="123" height="32" viewBox="0 0 123 32" fill="none" xmlns="http://www.w3.org/2000/svg">
<path d="M42.667 2.66663H43.2003V29.3333H42.667V2.66663Z" fill="#23282F"/>
<path d="M56.4945 8.42507H57.4246L60.0273 14.4667H58.7985L58.2353 13.0843H55.6155L55.0694 14.4667H53.8662L56.4945 8.42507ZM57.8598 12.1627L56.9297 9.70507L55.9825 12.1627H57.8598ZM62.7467 8.42507H63.8219V13.4939H66.3904V14.4667H62.7467V8.42507ZM69.2197 8.42507H73.2218V9.39787H70.2949V10.8827H73.0682V11.8555H70.2949V13.4939H73.3754V14.4667H69.2197V8.42507ZM77.9606 11.3093L75.9467 8.42507H77.3035L78.7286 10.6608L80.1366 8.42507H81.4422L79.4625 11.3093L81.6555 14.4667H80.2902L78.6945 11.9152L77.1073 14.4667H75.8102L77.9606 11.3093ZM86.3281 8.42507H87.2583L89.8609 14.4667H88.6321L88.0689 13.0843H85.4492L84.9031 14.4667H83.6999L86.3281 8.42507ZM87.6935 12.1627L86.7633 9.70507L85.8161 12.1627H87.6935ZM92.5803 8.42507H94.0054L96.9323 12.9136H96.9494V8.42507H98.0246V14.4667H96.6593L93.6726 9.83307H93.6555V14.4667H92.5803V8.42507ZM101.42 8.42507H103.801C104.199 8.42507 104.583 8.48765 104.953 8.61281C105.323 8.73227 105.65 8.91716 105.934 9.16747C106.219 9.41779 106.446 9.73352 106.617 10.1147C106.787 10.4901 106.873 10.9339 106.873 11.4459C106.873 11.9636 106.773 12.413 106.574 12.7941C106.381 13.1696 106.128 13.4825 105.815 13.7328C105.507 13.9774 105.163 14.1623 104.782 14.2875C104.407 14.4069 104.037 14.4667 103.673 14.4667H101.42V8.42507ZM103.297 13.4939C103.633 13.4939 103.949 13.4569 104.245 13.3829C104.546 13.3033 104.808 13.1838 105.03 13.0245C105.251 12.8596 105.425 12.6491 105.55 12.3931C105.681 12.1314 105.746 11.8157 105.746 11.4459C105.746 11.0818 105.69 10.7689 105.576 10.5072C105.462 10.2455 105.303 10.035 105.098 9.87574C104.899 9.71076 104.66 9.5913 104.381 9.51734C104.108 9.4377 103.807 9.39787 103.477 9.39787H102.495V13.4939H103.297ZM109.943 8.42507H112.042C112.332 8.42507 112.611 8.45352 112.878 8.51041C113.152 8.56161 113.393 8.65263 113.604 8.78347C113.814 8.91432 113.982 9.09067 114.107 9.31254C114.232 9.53441 114.295 9.81601 114.295 10.1573C114.295 10.5954 114.173 10.9623 113.928 11.2581C113.689 11.554 113.345 11.7332 112.896 11.7957L114.5 14.4667H113.203L111.803 11.9067H111.018V14.4667H109.943V8.42507ZM111.854 10.9851C112.008 10.9851 112.162 10.9794 112.315 10.968C112.469 10.9509 112.608 10.9168 112.733 10.8656C112.864 10.8087 112.97 10.7262 113.049 10.6181C113.129 10.5044 113.169 10.3479 113.169 10.1488C113.169 9.97245 113.132 9.83023 113.058 9.72214C112.984 9.61405 112.887 9.53441 112.768 9.48321C112.648 9.42632 112.514 9.38934 112.366 9.37227C112.224 9.35521 112.085 9.34667 111.948 9.34667H111.018V10.9851H111.854ZM122.204 12.248C122.204 12.6121 122.142 12.9421 122.017 13.2379C121.892 13.528 121.721 13.7755 121.505 13.9803C121.289 14.1851 121.033 14.3444 120.737 14.4581C120.441 14.5662 120.119 14.6203 119.772 14.6203C119.425 14.6203 119.104 14.5662 118.808 14.4581C118.512 14.3444 118.253 14.1851 118.032 13.9803C117.815 13.7755 117.645 13.528 117.52 13.2379C117.4 12.9421 117.34 12.6121 117.34 12.248V8.42507H118.416V12.2139C118.416 12.3618 118.438 12.5182 118.484 12.6832C118.529 12.8425 118.603 12.9904 118.706 13.1269C118.814 13.2635 118.953 13.3773 119.124 13.4683C119.3 13.5536 119.516 13.5963 119.772 13.5963C120.028 13.5963 120.242 13.5536 120.412 13.4683C120.589 13.3773 120.728 13.2635 120.831 13.1269C120.939 12.9904 121.015 12.8425 121.061 12.6832C121.106 12.5182 121.129 12.3618 121.129 12.2139V8.42507H122.204V12.248ZM54.6427 17.4251H56.7419C57.0036 17.4251 57.2454 17.4564 57.4673 17.5189C57.6948 17.5815 57.8883 17.6754 58.0475 17.8005C58.2125 17.92 58.3405 18.0765 58.4315 18.2699C58.5283 18.4576 58.5766 18.6795 58.5766 18.9355C58.5766 19.2825 58.4799 19.5669 58.2865 19.7888C58.0931 20.005 57.8427 20.1643 57.5355 20.2667V20.2837C57.7176 20.2951 57.8883 20.3435 58.0475 20.4288C58.2068 20.5085 58.3434 20.6165 58.4571 20.7531C58.5766 20.8839 58.6705 21.0375 58.7387 21.2139C58.807 21.3902 58.8411 21.5808 58.8411 21.7856C58.8411 22.0587 58.7843 22.3005 58.6705 22.5109C58.5624 22.7157 58.4116 22.8893 58.2182 23.0315C58.0248 23.1737 57.8001 23.2818 57.5441 23.3557C57.2881 23.4297 57.0122 23.4667 56.7163 23.4667H54.6427V17.4251ZM55.4619 19.9339H56.5798C56.7334 19.9339 56.8785 19.9197 57.015 19.8912C57.1515 19.8571 57.271 19.803 57.3734 19.7291C57.4758 19.6551 57.5555 19.5613 57.6123 19.4475C57.6749 19.3337 57.7062 19.1943 57.7062 19.0293C57.7062 18.7904 57.6294 18.5828 57.4758 18.4064C57.3222 18.2301 57.0804 18.1419 56.7505 18.1419H55.4619V19.9339ZM55.4619 22.7499H56.6651C56.7903 22.7499 56.9268 22.7385 57.0747 22.7157C57.2283 22.6873 57.3706 22.6361 57.5014 22.5621C57.6323 22.4825 57.7432 22.3773 57.8342 22.2464C57.9252 22.1156 57.9707 21.9421 57.9707 21.7259C57.9707 21.3675 57.8541 21.1001 57.6209 20.9237C57.3876 20.7417 57.0719 20.6507 56.6737 20.6507H55.4619V22.7499ZM62.774 17.4251V21.1285C62.774 21.3163 62.7996 21.5125 62.8508 21.7173C62.902 21.9165 62.9873 22.1013 63.1068 22.272C63.2263 22.4427 63.3827 22.5821 63.5761 22.6901C63.7696 22.7982 64.0085 22.8523 64.2929 22.8523C64.5774 22.8523 64.8163 22.7982 65.0097 22.6901C65.2032 22.5821 65.3596 22.4427 65.4791 22.272C65.5985 22.1013 65.6839 21.9165 65.7351 21.7173C65.7863 21.5125 65.8119 21.3163 65.8119 21.1285V17.4251H66.6311V21.2565C66.6311 21.6093 66.5713 21.9307 66.4519 22.2208C66.3324 22.5053 66.1674 22.7527 65.9569 22.9632C65.7465 23.1737 65.499 23.3358 65.2145 23.4496C64.9301 23.5634 64.6229 23.6203 64.2929 23.6203C63.963 23.6203 63.6558 23.5634 63.3713 23.4496C63.0869 23.3358 62.8394 23.1737 62.6289 22.9632C62.4185 22.7527 62.2535 22.5053 62.134 22.2208C62.0145 21.9307 61.9548 21.6093 61.9548 21.2565V17.4251H62.774ZM70.1221 17.4251H71.1973L74.5253 22.3915H74.5423V17.4251H75.3615V23.4667H74.3205L70.9583 18.5003H70.9413V23.4667H70.1221V17.4251ZM83.1687 18.7307C82.998 18.5088 82.7818 18.3381 82.5201 18.2187C82.2585 18.0992 81.9882 18.0395 81.7095 18.0395C81.3681 18.0395 81.0581 18.1049 80.7793 18.2357C80.5063 18.3609 80.2702 18.5344 80.0711 18.7563C79.8777 18.9781 79.7269 19.2398 79.6188 19.5413C79.5107 19.8372 79.4567 20.1557 79.4567 20.4971C79.4567 20.8157 79.5079 21.1172 79.6103 21.4016C79.7127 21.6861 79.8606 21.9364 80.054 22.1525C80.2474 22.3687 80.4835 22.5394 80.7623 22.6645C81.041 22.7897 81.3568 22.8523 81.7095 22.8523C82.0565 22.8523 82.3609 22.7812 82.6225 22.6389C82.8842 22.4967 83.1061 22.2976 83.2881 22.0416L83.9793 22.5621C83.9338 22.6247 83.8542 22.7157 83.7404 22.8352C83.6266 22.949 83.4759 23.0656 83.2881 23.1851C83.1004 23.2989 82.8729 23.3984 82.6055 23.4837C82.3438 23.5748 82.0394 23.6203 81.6924 23.6203C81.2145 23.6203 80.7822 23.5293 80.3953 23.3472C80.0142 23.1652 79.6871 22.9262 79.414 22.6304C79.1466 22.3346 78.9418 22.0018 78.7996 21.632C78.6574 21.2565 78.5863 20.8782 78.5863 20.4971C78.5863 20.0306 78.6631 19.6011 78.8167 19.2085C78.9703 18.8103 79.1836 18.469 79.4567 18.1845C79.7354 17.8944 80.0682 17.6697 80.4551 17.5104C80.8419 17.3511 81.2686 17.2715 81.7351 17.2715C82.1333 17.2715 82.523 17.3483 82.9041 17.5019C83.291 17.6555 83.6067 17.8916 83.8513 18.2101L83.1687 18.7307ZM87.0181 17.4251H90.9178V18.1931H87.8373V19.9936H90.7045V20.7616H87.8373V22.6987H91.0714V23.4667H87.0181V17.4251ZM96.1771 17.4251H96.9195L99.5051 23.4667H98.5494L97.9435 21.9733H95.0678L94.4705 23.4667H93.5147L96.1771 17.4251ZM97.6449 21.2565L96.5185 18.4832H96.5014L95.3579 21.2565H97.6449Z" fill="#23282F"/>
<path d="M24 29.8564C20.7007 31.7612 16.8301 32.4263 13.0842 31.7321C9.33837 31.0378 5.96315 29.0298 3.56566 26.0691C1.16817 23.1085 -0.0942425 19.3895 0.00548284 15.5812C0.105208 11.7728 1.56053 8.12503 4.10968 5.29391C6.65884 2.46279 10.1345 0.634141 13.9116 0.136882C17.6886 -0.360377 21.5192 0.506388 24.7142 2.58127C27.9093 4.65616 30.2591 7.80299 31.3411 11.4558C32.4231 15.1085 32.1663 19.0275 30.6167 22.5078L29.1551 21.857C30.5496 18.7248 30.7808 15.1977 29.807 11.9102C28.8332 8.62269 26.7183 5.79054 23.8428 3.92315C20.9673 2.05575 17.5198 1.27566 14.1204 1.72319C10.7211 2.17073 7.59295 3.81651 5.29872 6.36452C3.00448 8.91253 1.69469 12.1955 1.60493 15.6231C1.51518 19.0506 2.65136 22.3976 4.8091 25.0622C6.96684 27.7268 10.0045 29.534 13.3758 30.1589C16.7471 30.7837 20.2307 30.1851 23.2 28.4708L24 29.8564Z" fill="url(#paint0_linear)"/>
<rect x="5.33301" width="5.33333" height="16" fill="#2BC99A"/>
<rect x="21.333" y="16" width="5.33333" height="10.6667" fill="#2BC99A"/>
<path d="M26.6663 16C26.6663 21.8911 21.8907 26.6667 15.9997 26.6667C10.1086 26.6667 5.33301 21.8911 5.33301 16C5.33301 10.109 10.1086 5.33337 15.9997 5.33337C21.8907 5.33337 26.6663 10.109 26.6663 16ZM10.6663 16C10.6663 18.9456 13.0542 21.3334 15.9997 21.3334C18.9452 21.3334 21.333 18.9456 21.333 16C21.333 13.0545 18.9452 10.6667 15.9997 10.6667C13.0542 10.6667 10.6663 13.0545 10.6663 16Z" fill="#46D7AC"/>
<defs>
<linearGradient id="paint0_linear" x1="5" y1="7" x2="28" y2="24" gradientUnits="userSpaceOnUse">
<stop stop-color="#4B3EE0"/>
<stop offset="1" stop-color="#46D7AC"/>
</linearGradient>
</defs>
</svg>
