<svg width="154" height="40" viewBox="0 0 154 40" fill="none" xmlns="http://www.w3.org/2000/svg">
<path d="M53.334 3.33325H54.0007V36.6666H53.334V3.33325Z" fill="#23282F"/>
<path d="M70.6183 10.7814H71.781L75.0343 18.3334H73.4983L72.7943 16.6054H69.5197L68.837 18.3334H67.333L70.6183 10.7814ZM72.325 15.4534L71.1623 12.3814L69.9783 15.4534H72.325ZM78.4336 10.7814H79.7776V17.1174H82.9883V18.3334H78.4336V10.7814ZM86.5248 10.7814H91.5275V11.9974H87.8688V13.8534H91.3355V15.0694H87.8688V17.1174H91.7195V18.3334H86.5248V10.7814ZM97.451 14.3867L94.9337 10.7814H96.6297L98.411 13.576L100.171 10.7814H101.803L99.3283 14.3867L102.07 18.3334H100.363L98.3683 15.144L96.3843 18.3334H94.763L97.451 14.3867ZM107.91 10.7814H109.073L112.326 18.3334H110.79L110.086 16.6054H106.812L106.129 18.3334H104.625L107.91 10.7814ZM109.617 15.4534L108.454 12.3814L107.27 15.4534H109.617ZM115.726 10.7814H117.507L121.166 16.392H121.187V10.7814H122.531V18.3334H120.824L117.091 12.5414H117.07V18.3334H115.726V10.7814ZM126.775 10.7814H129.751C130.249 10.7814 130.729 10.8596 131.191 11.016C131.653 11.1654 132.062 11.3965 132.418 11.7094C132.773 12.0223 133.058 12.4169 133.271 12.8934C133.485 13.3627 133.591 13.9174 133.591 14.5574C133.591 15.2045 133.467 15.7663 133.218 16.2427C132.976 16.712 132.66 17.1032 132.269 17.416C131.885 17.7218 131.454 17.9529 130.978 18.1094C130.509 18.2587 130.046 18.3334 129.591 18.3334H126.775V10.7814ZM129.122 17.1174C129.541 17.1174 129.936 17.0712 130.306 16.9787C130.683 16.8792 131.01 16.7298 131.287 16.5307C131.565 16.3245 131.781 16.0614 131.938 15.7414C132.101 15.4143 132.183 15.0196 132.183 14.5574C132.183 14.1023 132.112 13.7112 131.97 13.384C131.828 13.0569 131.629 12.7938 131.373 12.5947C131.124 12.3885 130.825 12.2392 130.477 12.1467C130.135 12.0472 129.758 11.9974 129.346 11.9974H128.119V17.1174H129.122ZM137.429 10.7814H140.053C140.416 10.7814 140.764 10.8169 141.098 10.888C141.44 10.952 141.742 11.0658 142.005 11.2294C142.268 11.3929 142.478 11.6134 142.634 11.8907C142.791 12.168 142.869 12.52 142.869 12.9467C142.869 13.4943 142.716 13.9529 142.41 14.3227C142.112 14.6925 141.681 14.9165 141.12 14.9947L143.125 18.3334H141.504L139.754 15.1334H138.773V18.3334H137.429V10.7814ZM139.818 13.9814C140.01 13.9814 140.202 13.9743 140.394 13.96C140.586 13.9387 140.761 13.896 140.917 13.832C141.081 13.7609 141.212 13.6578 141.312 13.5227C141.411 13.3805 141.461 13.1849 141.461 12.936C141.461 12.7156 141.415 12.5378 141.322 12.4027C141.23 12.2676 141.109 12.168 140.96 12.104C140.81 12.0329 140.643 11.9867 140.458 11.9654C140.281 11.944 140.106 11.9334 139.936 11.9334H138.773V13.9814H139.818ZM152.756 15.56C152.756 16.0152 152.678 16.4276 152.521 16.7974C152.365 17.16 152.151 17.4694 151.881 17.7254C151.611 17.9814 151.291 18.1805 150.921 18.3227C150.551 18.4578 150.15 18.5254 149.716 18.5254C149.282 18.5254 148.88 18.4578 148.51 18.3227C148.141 18.1805 147.817 17.9814 147.54 17.7254C147.27 17.4694 147.056 17.16 146.9 16.7974C146.75 16.4276 146.676 16.0152 146.676 15.56V10.7814H148.02V15.5174C148.02 15.7023 148.048 15.8978 148.105 16.104C148.162 16.3032 148.254 16.488 148.382 16.6587C148.518 16.8294 148.692 16.9716 148.905 17.0854C149.126 17.192 149.396 17.2454 149.716 17.2454C150.036 17.2454 150.302 17.192 150.516 17.0854C150.736 16.9716 150.91 16.8294 151.038 16.6587C151.174 16.488 151.27 16.3032 151.326 16.104C151.383 15.8978 151.412 15.7023 151.412 15.5174V10.7814H152.756V15.56ZM68.3037 21.7814H70.9277C71.2548 21.7814 71.557 21.8205 71.8343 21.8987C72.1188 21.9769 72.3606 22.0943 72.5597 22.2507C72.7659 22.4 72.9259 22.5956 73.0397 22.8374C73.1606 23.072 73.221 23.3494 73.221 23.6694C73.221 24.1032 73.1001 24.4587 72.8583 24.736C72.6166 25.0063 72.3037 25.2054 71.9197 25.3334V25.3547C72.1472 25.3689 72.3606 25.4294 72.5597 25.536C72.7588 25.6356 72.9295 25.7707 73.0717 25.9414C73.221 26.1049 73.3383 26.2969 73.4237 26.5174C73.509 26.7378 73.5517 26.976 73.5517 27.232C73.5517 27.5734 73.4806 27.8756 73.3383 28.1387C73.2032 28.3947 73.0148 28.6116 72.773 28.7894C72.5312 28.9672 72.2503 29.1023 71.9303 29.1947C71.6103 29.2872 71.2655 29.3334 70.8957 29.3334H68.3037V21.7814ZM69.3277 24.9174H70.725C70.917 24.9174 71.0983 24.8996 71.269 24.864C71.4397 24.8214 71.589 24.7538 71.717 24.6614C71.845 24.5689 71.9446 24.4516 72.0157 24.3094C72.0939 24.1672 72.133 23.9929 72.133 23.7867C72.133 23.488 72.037 23.2285 71.845 23.008C71.653 22.7876 71.3508 22.6774 70.9383 22.6774H69.3277V24.9174ZM69.3277 28.4374H70.8317C70.9881 28.4374 71.1588 28.4232 71.3437 28.3947C71.5357 28.3592 71.7135 28.2952 71.877 28.2027C72.0406 28.1032 72.1792 27.9716 72.293 27.808C72.4068 27.6445 72.4637 27.4276 72.4637 27.1574C72.4637 26.7094 72.3179 26.3752 72.0263 26.1547C71.7348 25.9272 71.3401 25.8134 70.8423 25.8134H69.3277V28.4374ZM78.4678 21.7814V26.4107C78.4678 26.6454 78.4998 26.8907 78.5638 27.1467C78.6278 27.3956 78.7344 27.6267 78.8838 27.84C79.0331 28.0534 79.2286 28.2276 79.4704 28.3627C79.7122 28.4978 80.0109 28.5654 80.3664 28.5654C80.722 28.5654 81.0206 28.4978 81.2624 28.3627C81.5042 28.2276 81.6998 28.0534 81.8491 27.84C81.9984 27.6267 82.1051 27.3956 82.1691 27.1467C82.2331 26.8907 82.2651 26.6454 82.2651 26.4107V21.7814H83.2891V26.5707C83.2891 27.0116 83.2144 27.4134 83.0651 27.776C82.9158 28.1316 82.7095 28.4409 82.4464 28.704C82.1833 28.9672 81.874 29.1698 81.5184 29.312C81.1629 29.4543 80.7789 29.5254 80.3664 29.5254C79.954 29.5254 79.57 29.4543 79.2144 29.312C78.8589 29.1698 78.5495 28.9672 78.2864 28.704C78.0233 28.4409 77.8171 28.1316 77.6678 27.776C77.5184 27.4134 77.4438 27.0116 77.4438 26.5707V21.7814H78.4678ZM87.6528 21.7814H88.9968L93.1568 27.9894H93.1782V21.7814H94.2022V29.3334H92.9008L88.6982 23.1254H88.6768V29.3334H87.6528V21.7814ZM103.961 23.4134C103.748 23.136 103.478 22.9227 103.15 22.7734C102.823 22.624 102.486 22.5494 102.137 22.5494C101.71 22.5494 101.323 22.6312 100.974 22.7947C100.633 22.9512 100.338 23.168 100.089 23.4454C99.8473 23.7227 99.6589 24.0498 99.5238 24.4267C99.3886 24.7965 99.3211 25.1947 99.3211 25.6214C99.3211 26.0196 99.3851 26.3965 99.5131 26.752C99.6411 27.1076 99.826 27.4205 100.068 27.6907C100.31 27.9609 100.605 28.1743 100.953 28.3307C101.302 28.4872 101.696 28.5654 102.137 28.5654C102.571 28.5654 102.951 28.4765 103.278 28.2987C103.606 28.1209 103.883 27.872 104.11 27.552L104.974 28.2027C104.918 28.2809 104.818 28.3947 104.676 28.544C104.534 28.6863 104.345 28.832 104.11 28.9814C103.876 29.1236 103.591 29.248 103.257 29.3547C102.93 29.4685 102.55 29.5254 102.116 29.5254C101.518 29.5254 100.978 29.4116 100.494 29.184C100.018 28.9565 99.6091 28.6578 99.2678 28.288C98.9335 27.9183 98.6775 27.5023 98.4998 27.04C98.322 26.5707 98.2331 26.0978 98.2331 25.6214C98.2331 25.0383 98.3291 24.5014 98.5211 24.0107C98.7131 23.5129 98.9798 23.0863 99.3211 22.7307C99.6695 22.368 100.086 22.0872 100.569 21.888C101.053 21.6889 101.586 21.5894 102.169 21.5894C102.667 21.5894 103.154 21.6854 103.63 21.8774C104.114 22.0694 104.509 22.3645 104.814 22.7627L103.961 23.4134ZM108.773 21.7814H113.648V22.7414H109.797V24.992H113.381V25.952H109.797V28.3734H113.84V29.3334H108.773V21.7814ZM120.222 21.7814H121.15L124.382 29.3334H123.187L122.43 27.4667H118.835L118.088 29.3334H116.894L120.222 21.7814ZM122.056 26.5707L120.648 23.104H120.627L119.198 26.5707H122.056Z" fill="#23282F"/>
<path d="M30 37.3205C25.8759 39.7015 21.0376 40.5329 16.3553 39.6651C11.673 38.7973 7.45394 36.2872 4.45708 32.5864C1.46022 28.8856 -0.117803 24.2369 0.00685355 19.4765C0.13151 14.716 1.95066 10.1563 5.1371 6.61739C8.32355 3.07848 12.6682 0.792676 17.3895 0.171102C22.1108 -0.450471 26.899 0.632984 30.8928 3.22659C34.8866 5.8202 37.8239 9.75374 39.1764 14.3197C40.5289 18.8857 40.2078 23.7844 38.2709 28.1347L36.4438 27.3213C38.187 23.4059 38.476 18.9971 37.2588 14.8877C36.0415 10.7784 33.3979 7.23818 29.8035 4.90393C26.2091 2.56969 21.8997 1.59458 17.6505 2.15399C13.4013 2.71341 9.49119 4.77064 6.62339 7.95565C3.7556 11.1407 2.11836 15.2444 2.00617 19.5288C1.89398 23.8132 3.3142 27.997 6.01137 31.3278C8.70855 34.6585 12.5057 36.9176 16.7198 37.6986C20.9338 38.4796 25.2883 37.7314 29 35.5885L30 37.3205Z" fill="url(#paint0_linear)"/>
<rect x="6.66602" width="6.66667" height="20" fill="#2BC99A"/>
<rect x="26.666" y="20" width="6.66667" height="13.3333" fill="#2BC99A"/>
<path d="M33.3327 20.0001C33.3327 27.3639 27.3631 33.3334 19.9993 33.3334C12.6356 33.3334 6.66602 27.3639 6.66602 20.0001C6.66602 12.6363 12.6356 6.66675 19.9993 6.66675C27.3631 6.66675 33.3327 12.6363 33.3327 20.0001ZM13.3327 20.0001C13.3327 23.682 16.3175 26.6667 19.9993 26.6667C23.6812 26.6667 26.666 23.682 26.666 20.0001C26.666 16.3182 23.6812 13.3334 19.9993 13.3334C16.3175 13.3334 13.3327 16.3182 13.3327 20.0001Z" fill="#46D7AC"/>
<defs>
<linearGradient id="paint0_linear" x1="6.25" y1="8.75" x2="35" y2="30" gradientUnits="userSpaceOnUse">
<stop stop-color="#4B3EE0"/>
<stop offset="1" stop-color="#46D7AC"/>
</linearGradient>
</defs>
</svg>
