<svg width="24" height="24" viewBox="0 0 24 24" fill="none" xmlns="http://www.w3.org/2000/svg">
<path d="M9.66667 11.2417C10.9917 10.6083 11.6833 9.65 11.6833 8.15833C11.6833 5.21667 9.49167 4.5 6.9625 4.5H0V19.2667H7.15833C9.84167 19.2667 12.3625 17.9792 12.3625 14.9792C12.3625 13.125 11.4833 11.7542 9.66667 11.2417V11.2417ZM3.24583 7.02083H6.29167C7.4625 7.02083 8.51667 7.35 8.51667 8.70833C8.51667 9.9625 7.69583 10.4667 6.5375 10.4667H3.24583V7.02083V7.02083ZM6.71667 16.7583H3.24583V12.6917H6.78333C8.2125 12.6917 9.11667 13.2875 9.11667 14.8C9.11667 16.2917 8.0375 16.7583 6.71667 16.7583V16.7583ZM21.6542 6.72917H15.6667V5.275H21.6542V6.72917V6.72917ZM24 14.075C24 10.9125 22.15 8.275 18.7958 8.275C15.5375 8.275 13.325 10.725 13.325 13.9333C13.325 17.2625 15.4208 19.5458 18.7958 19.5458C21.35 19.5458 23.0042 18.3958 23.8 15.95H21.2083C20.9292 16.8625 19.7792 17.3458 18.8875 17.3458C17.1667 17.3458 16.2625 16.3375 16.2625 14.625H23.975C23.9875 14.45 24 14.2625 24 14.075ZM16.2667 12.775C16.3625 11.3708 17.2958 10.4917 18.7042 10.4917C20.1792 10.4917 20.9208 11.3583 21.0458 12.775H16.2667Z" fill="#69778C"/>
</svg>
