<svg width="24" height="24" viewBox="0 0 24 24" fill="none" xmlns="http://www.w3.org/2000/svg">
<path d="M12.0043 6.6094C9.02305 6.6094 6.61836 9.01409 6.61836 11.9953C6.61836 14.9766 9.02305 17.3813 12.0043 17.3813C14.9855 17.3813 17.3902 14.9766 17.3902 11.9953C17.3902 9.01409 14.9855 6.6094 12.0043 6.6094ZM12.0043 15.4969C10.0777 15.4969 8.50273 13.9266 8.50273 11.9953C8.50273 10.0641 10.073 8.49377 12.0043 8.49377C13.9355 8.49377 15.5059 10.0641 15.5059 11.9953C15.5059 13.9266 13.9309 15.4969 12.0043 15.4969V15.4969ZM18.8668 6.38909C18.8668 7.08752 18.3043 7.64534 17.6105 7.64534C16.9121 7.64534 16.3543 7.08284 16.3543 6.38909C16.3543 5.69534 16.9168 5.13284 17.6105 5.13284C18.3043 5.13284 18.8668 5.69534 18.8668 6.38909ZM22.434 7.66409C22.3543 5.98127 21.9699 4.49065 20.7371 3.26252C19.509 2.0344 18.0184 1.65002 16.3355 1.56565C14.6012 1.46721 9.40273 1.46721 7.66836 1.56565C5.99023 1.64534 4.49961 2.02971 3.2668 3.25784C2.03398 4.48596 1.6543 5.97659 1.56992 7.6594C1.47148 9.39377 1.47148 14.5922 1.56992 16.3266C1.64961 18.0094 2.03398 19.5 3.2668 20.7281C4.49961 21.9563 5.98555 22.3406 7.66836 22.425C9.40273 22.5235 14.6012 22.5235 16.3355 22.425C18.0184 22.3453 19.509 21.961 20.7371 20.7281C21.9652 19.5 22.3496 18.0094 22.434 16.3266C22.5324 14.5922 22.5324 9.39846 22.434 7.66409V7.66409ZM20.1934 18.1875C19.8277 19.1063 19.1199 19.8141 18.1965 20.1844C16.8137 20.7328 13.5324 20.6063 12.0043 20.6063C10.4762 20.6063 7.19023 20.7281 5.81211 20.1844C4.89336 19.8188 4.18555 19.111 3.81523 18.1875C3.2668 16.8047 3.39336 13.5235 3.39336 11.9953C3.39336 10.4672 3.27148 7.18127 3.81523 5.80315C4.18086 4.8844 4.88867 4.17659 5.81211 3.80627C7.19492 3.25784 10.4762 3.3844 12.0043 3.3844C13.5324 3.3844 16.8184 3.26252 18.1965 3.80627C19.1152 4.1719 19.823 4.87971 20.1934 5.80315C20.7418 7.18596 20.6152 10.4672 20.6152 11.9953C20.6152 13.5235 20.7418 16.8094 20.1934 18.1875Z" fill="#69778C"/>
</svg>
