<svg width="24" height="24" viewBox="0 0 24 24" fill="none" xmlns="http://www.w3.org/2000/svg">
<path d="M3.35195 6.67031C3.38008 6.39375 3.27227 6.11719 3.06602 5.92969L0.951953 3.37969V3H7.52383L12.6051 14.1422L17.0723 3H23.3395V3.37969L21.5301 5.11406C21.3754 5.23125 21.2957 5.42812 21.3285 5.62031V18.3703C21.2957 18.5625 21.3754 18.7594 21.5301 18.8766L23.2973 20.6109V20.9906H14.4051V20.6109L16.2379 18.8344C16.416 18.6562 16.416 18.6 16.416 18.3281V8.025L11.3207 20.9578H10.6316L4.70664 8.025V16.6922C4.65508 17.0578 4.77695 17.4234 5.03477 17.6859L7.41602 20.5734V20.9531H0.666016V20.5781L3.04727 17.6859C3.30039 17.4234 3.41758 17.0531 3.35195 16.6922V6.67031Z" fill="#69778C"/>
</svg>
